<svg xmlns="http://www.w3.org/2000/svg" width="1200" height="720" viewBox="0 0 1200 720" fill="none"><rect width="1200" height="720" rx="32" fill="#F6F7FB"/><rect x="68" y="56" width="1064" height="608" rx="24" fill="#FFFFFF" stroke="#DDE1EA" stroke-width="2"/><rect x="68" y="56" width="1064" height="72" rx="24" fill="#000091"/><text x="108" y="102" fill="#FFFFFF" font-size="32" font-family="Arial" font-weight="700">Espace Administrateur</text><rect x="112" y="170" width="432" height="442" rx="22" fill="#EEF0FB"/><rect x="588" y="170" width="500" height="442" rx="22" fill="#FFFFFF" stroke="#DDE1EA" stroke-width="2"/><text x="152" y="216" fill="#000091" font-size="28" font-family="Arial" font-weight="700">Référentiels et paramétrage</text><rect x="152" y="252" width="352" height="58" rx="16" fill="#FFFFFF"/><rect x="152" y="332" width="352" height="58" rx="16" fill="#FFFFFF"/><rect x="152" y="412" width="352" height="58" rx="16" fill="#FFFFFF"/><text x="180" y="288" fill="#1B1B35" font-size="22" font-family="Arial">Référentiels</text><text x="180" y="368" fill="#1B1B35" font-size="22" font-family="Arial">Sauvegardes / restauration</text><text x="180" y="448" fill="#1B1B35" font-size="22" font-family="Arial">Publication documentation</text><text x="624" y="216" fill="#000091" font-size="28" font-family="Arial" font-weight="700">Journal d’audit</text><rect x="624" y="258" width="428" height="44" rx="12" fill="#F6F7FB" stroke="#DDE1EA"/><rect x="624" y="322" width="428" height="44" rx="12" fill="#F6F7FB" stroke="#DDE1EA"/><rect x="624" y="386" width="428" height="44" rx="12" fill="#F6F7FB" stroke="#DDE1EA"/><text x="654" y="286" fill="#1B1B35" font-size="20" font-family="Arial">Filtres forensic</text><text x="654" y="350" fill="#1B1B35" font-size="20" font-family="Arial">Export CSV</text><text x="654" y="414" fill="#1B1B35" font-size="20" font-family="Arial">Lecture seule / immuable</text><path d="M950 118 C1006 104 1070 92 1082 68" stroke="#E1000F" stroke-width="6" stroke-linecap="round"/><polygon points="1082,68 1064,74 1072,88" fill="#E1000F"/><text x="900" y="152" fill="#E1000F" font-size="20" font-family="Arial" font-weight="700">Aide admin</text></svg>
