<svg xmlns="http://www.w3.org/2000/svg" width="1200" height="720" viewBox="0 0 1200 720" fill="none"><rect width="1200" height="720" rx="32" fill="#F6F7FB"/><rect x="72" y="58" width="1056" height="604" rx="24" fill="#FFFFFF" stroke="#DDE1EA" stroke-width="2"/><rect x="72" y="58" width="1056" height="72" rx="24" fill="#000091"/><text x="112" y="104" fill="#FFFFFF" font-size="32" font-family="Arial" font-weight="700">Espace Contrôleur terrain</text><rect x="116" y="170" width="430" height="442" rx="22" fill="#FFFFFF" stroke="#DDE1EA" stroke-width="2"/><rect x="592" y="170" width="490" height="442" rx="22" fill="#EEF0FB"/><text x="150" y="214" fill="#000091" font-size="28" font-family="Arial" font-weight="700">Constat terrain</text><rect x="150" y="246" width="362" height="58" rx="16" fill="#F6F7FB" stroke="#DDE1EA"/><rect x="150" y="326" width="362" height="58" rx="16" fill="#F6F7FB" stroke="#DDE1EA"/><rect x="150" y="406" width="362" height="118" rx="16" fill="#F6F7FB" stroke="#DDE1EA"/><text x="176" y="282" fill="#1B1B35" font-size="22" font-family="Arial">Adresse / GPS / date</text><text x="176" y="362" fill="#1B1B35" font-size="22" font-family="Arial">Dispositif lié ou création</text><text x="176" y="452" fill="#1B1B35" font-size="22" font-family="Arial">Photos terrain</text><circle cx="802" cy="360" r="108" fill="#D4D9F5"/><circle cx="802" cy="360" r="24" fill="#000091"/><path d="M802 286 V434" stroke="#000091" stroke-width="8" stroke-linecap="round"/><path d="M728 360 H876" stroke="#000091" stroke-width="8" stroke-linecap="round"/><rect x="676" y="492" width="252" height="62" rx="18" fill="#FFFFFF"/><text x="730" y="532" fill="#1B1B35" font-size="24" font-family="Arial">Carte des dispositifs</text><path d="M986 118 C1030 108 1066 96 1080 68" stroke="#E1000F" stroke-width="6" stroke-linecap="round"/><polygon points="1080,68 1064,74 1072,88" fill="#E1000F"/><text x="922" y="152" fill="#E1000F" font-size="20" font-family="Arial" font-weight="700">Aide terrain</text></svg>
