<svg xmlns="http://www.w3.org/2000/svg" width="1200" height="720" viewBox="0 0 1200 720" fill="none"><rect width="1200" height="720" rx="32" fill="#F6F7FB"/><rect x="84" y="62" width="1032" height="596" rx="24" fill="#FFFFFF" stroke="#DDE1EA" stroke-width="2"/><rect x="84" y="62" width="1032" height="72" rx="24" fill="#000091"/><text x="126" y="108" fill="#FFFFFF" font-size="32" font-family="Arial" font-weight="700">Espace Contribuable</text><rect x="138" y="188" width="360" height="358" rx="24" fill="#FFFFFF" stroke="#DDE1EA" stroke-width="2"/><rect x="548" y="188" width="506" height="358" rx="24" fill="#EEF0FB"/><text x="182" y="236" fill="#000091" font-size="28" font-family="Arial" font-weight="700">Connexion sécurisée</text><rect x="182" y="278" width="272" height="52" rx="16" fill="#F6F7FB" stroke="#DDE1EA"/><rect x="182" y="350" width="272" height="52" rx="16" fill="#F6F7FB" stroke="#DDE1EA"/><rect x="182" y="422" width="272" height="52" rx="16" fill="#F6F7FB" stroke="#DDE1EA"/><text x="206" y="312" fill="#1B1B35" font-size="22" font-family="Arial">Email / mot de passe</text><text x="206" y="384" fill="#1B1B35" font-size="22" font-family="Arial">Code TOTP</text><text x="206" y="456" fill="#1B1B35" font-size="22" font-family="Arial">Code de récupération</text><text x="590" y="236" fill="#000091" font-size="28" font-family="Arial" font-weight="700">Suivi personnel</text><rect x="590" y="278" width="420" height="52" rx="16" fill="#FFFFFF"/><rect x="590" y="350" width="420" height="52" rx="16" fill="#FFFFFF"/><rect x="590" y="422" width="420" height="52" rx="16" fill="#FFFFFF"/><text x="620" y="312" fill="#1B1B35" font-size="22" font-family="Arial">Mes déclarations</text><text x="620" y="384" fill="#1B1B35" font-size="22" font-family="Arial">Mes titres</text><text x="620" y="456" fill="#1B1B35" font-size="22" font-family="Arial">Mes réclamations</text><path d="M930 118 C972 108 1030 98 1040 70" stroke="#E1000F" stroke-width="6" stroke-linecap="round"/><polygon points="1040,70 1022,76 1030,90" fill="#E1000F"/><text x="876" y="152" fill="#E1000F" font-size="20" font-family="Arial" font-weight="700">Aide contribuable</text></svg>
