<svg xmlns="http://www.w3.org/2000/svg" width="1200" height="720" viewBox="0 0 1200 720" fill="none"><rect width="1200" height="720" rx="32" fill="#F6F7FB"/><rect x="68" y="56" width="1064" height="608" rx="24" fill="#FFFFFF" stroke="#DDE1EA" stroke-width="2"/><rect x="68" y="56" width="1064" height="72" rx="24" fill="#000091"/><text x="108" y="101" fill="#FFFFFF" font-size="32" font-family="Arial" font-weight="700">Espace Financier</text><rect x="108" y="162" width="984" height="146" rx="22" fill="#EEF0FB"/><rect x="108" y="340" width="472" height="274" rx="22" fill="#FFFFFF" stroke="#DDE1EA" stroke-width="2"/><rect x="620" y="340" width="472" height="274" rx="22" fill="#FFFFFF" stroke="#DDE1EA" stroke-width="2"/><text x="146" y="206" fill="#000091" font-size="28" font-family="Arial" font-weight="700">Titres, recouvrement et export</text><rect x="146" y="230" width="180" height="52" rx="14" fill="#FFFFFF"/><rect x="348" y="230" width="180" height="52" rx="14" fill="#FFFFFF"/><rect x="550" y="230" width="180" height="52" rx="14" fill="#FFFFFF"/><rect x="752" y="230" width="300" height="52" rx="14" fill="#FFFFFF"/><text x="176" y="262" fill="#1B1B35" font-size="20" font-family="Arial">Bordereau PDF</text><text x="378" y="262" fill="#1B1B35" font-size="20" font-family="Arial">Rôle TLPE</text><text x="580" y="262" fill="#1B1B35" font-size="20" font-family="Arial">État recouvrement</text><text x="792" y="262" fill="#1B1B35" font-size="20" font-family="Arial">Carte des recettes</text><text x="144" y="388" fill="#000091" font-size="28" font-family="Arial" font-weight="700">Rapprochement bancaire</text><rect x="144" y="422" width="400" height="58" rx="18" fill="#F6F7FB" stroke="#DDE1EA"/><rect x="144" y="498" width="400" height="58" rx="18" fill="#F6F7FB" stroke="#DDE1EA"/><text x="170" y="458" fill="#1B1B35" font-size="22" font-family="Arial">Import CSV / OFX / MT940</text><text x="170" y="534" fill="#1B1B35" font-size="22" font-family="Arial">Match automatique et manuel</text><text x="656" y="388" fill="#000091" font-size="28" font-family="Arial" font-weight="700">Synthèse financière</text><path d="M672 548 C726 510 758 448 804 434 C862 416 912 458 968 432" stroke="#18753C" stroke-width="10" stroke-linecap="round"/><circle cx="968" cy="432" r="12" fill="#18753C"/><path d="M988 118 C1036 104 1088 92 1098 68" stroke="#E1000F" stroke-width="6" stroke-linecap="round"/><polygon points="1098,68 1080,74 1090,88" fill="#E1000F"/><text x="930" y="152" fill="#E1000F" font-size="20" font-family="Arial" font-weight="700">Aide → guide financier</text></svg>
