<svg xmlns="http://www.w3.org/2000/svg" width="1200" height="720" viewBox="0 0 1200 720" fill="none"><rect width="1200" height="720" rx="32" fill="#F6F7FB"/><rect x="82" y="68" width="1036" height="584" rx="28" fill="#FFFFFF" stroke="#DDE1EA" stroke-width="2"/><rect x="82" y="68" width="1036" height="74" rx="28" fill="#000091"/><text x="126" y="114" fill="#FFFFFF" font-size="32" font-family="Arial" font-weight="700">Installation locale TLPE</text><rect x="128" y="198" width="220" height="320" rx="22" fill="#EEF0FB"/><rect x="488" y="198" width="220" height="320" rx="22" fill="#EEF0FB"/><rect x="848" y="198" width="220" height="320" rx="22" fill="#EEF0FB"/><text x="172" y="242" fill="#000091" font-size="28" font-family="Arial" font-weight="700">1. Installer</text><text x="162" y="292" fill="#1B1B35" font-size="22" font-family="Arial">npm run install:all</text><text x="528" y="242" fill="#000091" font-size="28" font-family="Arial" font-weight="700">2. Construire</text><text x="540" y="292" fill="#1B1B35" font-size="22" font-family="Arial">npm run build</text><text x="892" y="242" fill="#000091" font-size="28" font-family="Arial" font-weight="700">3. Démarrer</text><text x="910" y="292" fill="#1B1B35" font-size="22" font-family="Arial">npm start</text><path d="M348 358 H468" stroke="#000091" stroke-width="10" stroke-linecap="round"/><polygon points="468,358 444,344 444,372" fill="#000091"/><path d="M708 358 H828" stroke="#000091" stroke-width="10" stroke-linecap="round"/><polygon points="828,358 804,344 804,372" fill="#000091"/><text x="430" y="560" fill="#5D6887" font-size="22" font-family="Arial">API + Front sur http://localhost:4000</text><path d="M950 186 C1000 154 1050 154 1086 188" stroke="#E1000F" stroke-width="6" stroke-linecap="round"/><polygon points="1086,188 1068,182 1074,200" fill="#E1000F"/><text x="882" y="182" fill="#E1000F" font-size="20" font-family="Arial" font-weight="700">Smoke test santé</text></svg>
